<svg xmlns="http://www.w3.org/2000/svg" viewBox="0 0 204 204"><defs><style>.cls-1{fill:#fff;}.cls-2,.cls-3{fill:#1775e5;}.cls-2{opacity:0.5;}</style></defs><g id="Capa_2" data-name="Capa 2"><g id="Capa_1-2" data-name="Capa 1"><rect class="cls-1" width="204" height="204" rx="42.36"/><path class="cls-2" d="M143.47,101.55H67.57A13.48,13.48,0,0,1,55,93L41.85,59.76A13.48,13.48,0,0,1,54.38,41.31h75.9a13.48,13.48,0,0,1,12.53,8.52L156,83.1A13.48,13.48,0,0,1,143.47,101.55Z"/><path class="cls-2" d="M149.62,162.69H73.72a13.48,13.48,0,0,1-12.53-8.52L48,120.9a13.48,13.48,0,0,1,12.53-18.45h75.9A13.48,13.48,0,0,1,149,111l13.19,33.28A13.48,13.48,0,0,1,149.62,162.69Z"/><path class="cls-3" d="M137.63,82a13.49,13.49,0,0,0-12.53-8.51l-58,.16h-.46c-4.58-.06-18.74-.62-21.44-5.37l9.1,23.09c.08.24.17.48.26.72l4,10.09,9.21,23.35v-.12a13.5,13.5,0,0,0,12.52,8.47h57s19.63-.32,22.87,5.37Z"/></g></g></svg>